<svg width="285" height="261" viewBox="0 0 285 261" fill="none" xmlns="http://www.w3.org/2000/svg">
<path d="M250.222 256.345H34.7778C17.7797 256.345 4 242.566 4 225.567V87.0672C4 70.0691 17.7797 56.2895 34.7778 56.2895H250.222C267.221 56.2895 281 70.0691 281 87.0672V225.567C281 242.566 267.221 256.345 250.222 256.345Z" fill="#8969E3" stroke="#8969E3" stroke-width="8"/>
<path d="M211.75 164.012C207.501 164.012 204.056 160.566 204.056 156.317C204.056 152.068 207.501 148.623 211.75 148.623C215.999 148.623 219.444 152.068 219.444 156.317C219.444 160.566 215.999 164.012 211.75 164.012Z" fill="white" stroke="white" stroke-width="1.5" stroke-linecap="round" stroke-linejoin="round"/>
<path d="M234.833 56.2895V34.7946C234.833 14.5726 215.665 -0.154371 196.126 5.056L26.8474 50.1968C13.3745 53.7897 4 65.9915 4 79.9354V87.0672" fill="#C4B2F8"/>
<path d="M234.833 56.2895V34.7946C234.833 14.5726 215.665 -0.154371 196.126 5.056L26.8474 50.1968C13.3745 53.7897 4 65.9915 4 79.9354V87.0672" stroke="#9779EC" stroke-width="8"/>
</svg>
